<svg width="143" height="34" viewBox="0 0 143 34" fill="none" xmlns="http://www.w3.org/2000/svg">
<path fill-rule="evenodd" clip-rule="evenodd" d="M11.5443 8.15972C11.5443 6.18682 13.1512 4.57986 15.1241 4.57986C17.0969 4.57986 18.7038 6.18682 18.7038 8.15972H22.2836C22.2836 4.21392 19.0857 1 15.1241 1C11.1624 1 7.96445 4.21392 7.96445 8.15972H11.5443ZM4.3845 15.3193H0.804688C0.804688 11.3735 4.00265 8.15958 7.9643 8.15958V11.7394C5.99143 11.7394 4.3845 13.3464 4.3845 15.3193ZM25.8636 15.3193H29.4434C29.4434 11.3735 26.2455 8.15958 22.2838 8.15958V11.7394C24.2567 11.7394 25.8636 13.3464 25.8636 15.3193ZM15.1246 8.63696C18.8222 8.63696 21.807 11.6217 21.8072 15.3193C21.8072 19.0022 18.8223 22.002 15.1246 22.002V18.6606C16.966 18.6606 18.4658 17.1609 18.4659 15.3196C18.4659 13.4782 16.966 11.9783 15.1246 11.9783L15.1246 8.63696ZM11.7833 15.3198H11.7828C11.7832 17.1609 13.2829 18.6604 15.124 18.6604V22.0017C11.4264 22.0017 8.44149 19.002 8.44149 15.3191H8.44207C8.44248 11.6217 11.4272 8.63721 15.1246 8.63721V11.9785C13.2832 11.9785 11.7833 13.4784 11.7833 15.3198ZM22.2838 22.4791V18.8993C24.2567 18.8993 25.8636 17.2923 25.8636 15.3194H29.4434C29.4434 19.2811 26.2455 22.4791 22.2838 22.4791ZM7.9643 22.4791V18.8993C5.99143 18.8993 4.3845 17.2923 4.3845 15.3194H0.804688C0.804688 19.2811 4.00265 22.4791 7.9643 22.4791ZM18.7038 22.479C18.7038 24.4519 17.0969 26.0588 15.1241 26.0589H15.124C13.1511 26.0588 11.5443 24.4519 11.5443 22.479H7.96445C7.96445 26.4407 11.1623 29.6387 15.124 29.6387C19.0856 29.6387 22.2836 26.4407 22.2836 22.479H18.7038ZM46.1225 26.9048C43.1969 26.9048 40.8789 26.0901 39.1686 24.4608C37.4582 22.8088 36.603 20.4553 36.603 17.4003V11.6977C36.603 8.64267 37.4582 6.3005 39.1686 4.67117C40.8789 3.0192 43.1969 2.19322 46.1225 2.19322C49.0256 2.19322 51.2648 2.99658 52.8401 4.60328C54.4379 6.18735 55.2368 8.37111 55.2368 11.1546V11.3582H50.8484V11.0188C50.8484 9.61574 50.4546 8.46163 49.667 7.55644C48.9018 6.65126 47.7203 6.19867 46.1225 6.19867C44.5472 6.19867 43.3094 6.6852 42.4092 7.65828C41.509 8.63135 41.0589 9.95518 41.0589 11.6298V17.4682C41.0589 19.1202 41.509 20.444 42.4092 21.4397C43.3094 22.4128 44.5472 22.8993 46.1225 22.8993C47.7203 22.8993 48.9018 22.4467 49.667 21.5416C50.4546 20.6137 50.8484 19.4596 50.8484 18.0792V17.4682H55.2368V17.9434C55.2368 20.7269 54.4379 22.922 52.8401 24.5287C51.2648 26.1127 49.0256 26.9048 46.1225 26.9048ZM57.9404 26.4296V2.66845H62.1938V26.4296H57.9404ZM69.3219 25.8864C70.6496 26.5653 72.1462 26.9048 73.8115 26.9048C75.4769 26.9048 76.9734 26.5653 78.3012 25.8864C79.629 25.2075 80.6754 24.2232 81.4406 22.9333C82.2057 21.6434 82.5883 20.0933 82.5883 18.2829V17.7398C82.5883 15.9294 82.2057 14.3793 81.4406 13.0894C80.6754 11.7995 79.629 10.8151 78.3012 10.1362C76.9734 9.45733 75.4769 9.11789 73.8115 9.11789C72.1462 9.11789 70.6496 9.45733 69.3219 10.1362C67.9941 10.8151 66.9476 11.7995 66.1825 13.0894C65.4173 14.3793 65.0347 15.9294 65.0347 17.7398V18.2829C65.0347 20.0933 65.4173 21.6434 66.1825 22.9333C66.9476 24.2232 67.9941 25.2075 69.3219 25.8864ZM77.0522 21.8471C76.197 22.6843 75.1168 23.103 73.8115 23.103C72.5063 23.103 71.426 22.6843 70.5709 21.8471C69.7157 20.9871 69.2881 19.7651 69.2881 18.1811V17.8416C69.2881 16.2575 69.7157 15.0468 70.5709 14.2096C71.426 13.3496 72.5063 12.9197 73.8115 12.9197C75.1393 12.9197 76.2195 13.3496 77.0522 14.2096C77.9074 15.0468 78.3349 16.2575 78.3349 17.8416V18.1811C78.3349 19.7651 77.9074 20.9871 77.0522 21.8471ZM85.4522 26.4296V9.59311H89.6381V11.7995H90.2457C90.5158 11.2111 91.0221 10.6567 91.7648 10.1362C92.5074 9.59311 93.6326 9.32156 95.1405 9.32156C96.4457 9.32156 97.5822 9.62706 98.5499 10.2381C99.5401 10.8264 100.305 11.6524 100.845 12.716C101.385 13.757 101.656 14.979 101.656 16.382V26.4296H97.4022V16.7214C97.4022 15.4542 97.0871 14.5037 96.457 13.8701C95.8493 13.2365 94.9717 12.9197 93.8239 12.9197C92.5187 12.9197 91.506 13.3609 90.7858 14.2435C90.0657 15.1034 89.7056 16.3141 89.7056 17.8756V26.4296H85.4522ZM105.191 9.59311V26.4296H109.445V9.59311H105.191ZM105.36 6.87756C105.9 7.37541 106.553 7.62433 107.318 7.62433C108.106 7.62433 108.758 7.37541 109.276 6.87756C109.794 6.3797 110.052 5.72344 110.052 4.90878C110.052 4.09411 109.794 3.43785 109.276 2.94C108.758 2.44215 108.106 2.19322 107.318 2.19322C106.553 2.19322 105.9 2.44215 105.36 2.94C104.843 3.43785 104.584 4.09411 104.584 4.90878C104.584 5.72344 104.843 6.3797 105.36 6.87756ZM115.864 26.4296V13.1233H111.611V9.59311H115.864V6.47022C115.864 5.31611 116.202 4.39961 116.877 3.72072C117.574 3.0192 118.475 2.66845 119.577 2.66845H123.966V6.19867H121.063C120.432 6.19867 120.117 6.53811 120.117 7.217V9.59311H124.506V13.1233H120.117V26.4296H115.864ZM128.559 29.4845V33.2184H139.091C140.217 33.2184 141.117 32.8677 141.792 32.1662C142.467 31.4873 142.805 30.5708 142.805 29.4167V9.59311H138.551V18.1471C138.551 19.7086 138.191 20.9306 137.471 21.8131C136.751 22.673 135.738 23.103 134.433 23.103C133.285 23.103 132.396 22.7862 131.766 22.1526C131.159 21.5189 130.855 20.5685 130.855 19.3012V9.59311H126.601V19.6407C126.601 21.0211 126.871 22.2431 127.412 23.3067C127.952 24.3703 128.706 25.2076 129.673 25.8186C130.663 26.4069 131.811 26.7011 133.116 26.7011C134.129 26.7011 134.962 26.5766 135.614 26.3277C136.267 26.0788 136.785 25.762 137.167 25.3773C137.55 24.9926 137.831 24.6079 138.011 24.2232H138.619V28.4662C138.619 29.1451 138.304 29.4845 137.674 29.4845H128.559Z" fill="#161616"/>
</svg>
